
<mxfile host="app.diagrams.net" agent="Mozilla/5.0 (Windows NT 10.0; Win64; x64) AppleWebKit/537.36 (KHTML, like Gecko) Chrome/135.0.0.0 Safari/537.36" version="26.2.14">
  <diagram name="Page-1" id="jwQLzb2DxPWMolC1AHMv">
    <mxGraphModel dx="1251" dy="660" grid="1" gridSize="10" guides="1" tooltips="1" connect="1" arrows="1" fold="1" page="1" pageScale="1" pageWidth="850" pageHeight="1100" math="0" shadow="0">
      <root>
        <mxCell id="0" />
        <mxCell id="1" parent="0" />
        <mxCell id="oYREQQewlF8n6T5Qyu0_-1" value="" style="shape=image;html=1;verticalAlign=top;verticalLabelPosition=bottom;labelBackgroundColor=#ffffff;imageAspect=0;aspect=fixed;image=https://cdn0.iconfinder.com/data/icons/construction-2-21/512/construction-industry-building-41-128.png" vertex="1" parent="1">
          <mxGeometry x="170" y="160" width="128" height="128" as="geometry" />
        </mxCell>
        <mxCell id="oYREQQewlF8n6T5Qyu0_-2" value="" style="shape=image;html=1;verticalAlign=top;verticalLabelPosition=bottom;labelBackgroundColor=#ffffff;imageAspect=0;aspect=fixed;image=https://cdn0.iconfinder.com/data/icons/construction-2-21/512/construction-industry-building-41-128.png" vertex="1" parent="1">
          <mxGeometry x="260" y="270" width="128" height="128" as="geometry" />
        </mxCell>
        <mxCell id="oYREQQewlF8n6T5Qyu0_-3" value="" style="shape=image;html=1;verticalAlign=top;verticalLabelPosition=bottom;labelBackgroundColor=#ffffff;imageAspect=0;aspect=fixed;image=https://cdn0.iconfinder.com/data/icons/construction-2-21/512/construction-industry-building-41-128.png" vertex="1" parent="1">
          <mxGeometry x="350" y="380" width="128" height="128" as="geometry" />
        </mxCell>
        <mxCell id="oYREQQewlF8n6T5Qyu0_-4" value="&lt;b&gt;I/P&lt;/b&gt;" style="text;html=1;align=center;verticalAlign=middle;resizable=0;points=[];autosize=1;strokeColor=none;fillColor=none;" vertex="1" parent="1">
          <mxGeometry x="120" y="138" width="40" height="30" as="geometry" />
        </mxCell>
        <mxCell id="oYREQQewlF8n6T5Qyu0_-5" value="&lt;b&gt;O/P&lt;/b&gt;" style="text;html=1;align=center;verticalAlign=middle;resizable=0;points=[];autosize=1;strokeColor=none;fillColor=none;" vertex="1" parent="1">
          <mxGeometry x="290" y="218" width="40" height="30" as="geometry" />
        </mxCell>
        <mxCell id="oYREQQewlF8n6T5Qyu0_-6" value="&lt;b&gt;I/P&lt;/b&gt;" style="text;html=1;align=center;verticalAlign=middle;resizable=0;points=[];autosize=1;strokeColor=none;fillColor=none;" vertex="1" parent="1">
          <mxGeometry x="214" y="310" width="40" height="30" as="geometry" />
        </mxCell>
        <mxCell id="oYREQQewlF8n6T5Qyu0_-7" value="&lt;b&gt;O/P&lt;/b&gt;" style="text;html=1;align=center;verticalAlign=middle;resizable=0;points=[];autosize=1;strokeColor=none;fillColor=none;" vertex="1" parent="1">
          <mxGeometry x="310" y="350" width="40" height="30" as="geometry" />
        </mxCell>
        <mxCell id="oYREQQewlF8n6T5Qyu0_-8" value="&lt;b&gt;I/P&lt;/b&gt;" style="text;html=1;align=center;verticalAlign=middle;resizable=0;points=[];autosize=1;strokeColor=none;fillColor=none;" vertex="1" parent="1">
          <mxGeometry x="310" y="390" width="40" height="30" as="geometry" />
        </mxCell>
        <mxCell id="oYREQQewlF8n6T5Qyu0_-9" value="&lt;b&gt;O/P&lt;/b&gt;" style="text;html=1;align=center;verticalAlign=middle;resizable=0;points=[];autosize=1;strokeColor=none;fillColor=none;" vertex="1" parent="1">
          <mxGeometry x="478" y="478" width="40" height="30" as="geometry" />
        </mxCell>
      </root>
    </mxGraphModel>
  </diagram>
</mxfile>
